# xmcd
#
# Track frame offsets: 
#        150
#        13266
#        25032
#        37946
#        56688
#        67195
#        80873
#        91768
#        100720
#
# Disc length: 1591 seconds
#
# Revision: 0
# Processed by: cddbd v1.5.2PL0 Copyright (c) Steve Scherf et al.
# Submitted via: ExactAudioCopy v1.0b1
#
DISCID=6c063509
DTITLE=Disco Like A Wolf - Up When You Crash
DYEAR=2011
DGENRE=Indie
TTITLE0=Dots&Dashes
TTITLE1=Cruel Plan
TTITLE2=Ineed Some Caffeine
TTITLE3=Song About Running Away
TTITLE4=Crush
TTITLE5=Souris
TTITLE6=Take A Walk With Me
TTITLE7=Down and Out
TTITLE8=Olives
EXTD=
EXTT0=
EXTT1=
EXTT2=
EXTT3=
EXTT4=
EXTT5=
EXTT6=
EXTT7=
EXTT8=
PLAYORDER=
